HIERARCHY
ROOT Hips
{
	OFFSET 0.00000 0.00000 0.00000
	CHANNELS 6 Xposition Yposition Zposition Zrotation Yrotation Xrotation 
	JOINT LHipJoint
	{
		OFFSET 0 0 0
		CHANNELS 3 Zrotation Yrotation Xrotation
		JOINT LeftHip
		{
			OFFSET 1.58895 -1.83665 0.71753
			CHANNELS 3 Zrotation Yrotation Xrotation
			JOINT LeftKnee
			{
				OFFSET 2.50528 -6.88321 0.00000
				CHANNELS 3 Zrotation Yrotation Xrotation
				JOINT LeftAnkle
				{
					OFFSET 2.63244 -7.23257 0.00000
					CHANNELS 3 Zrotation Yrotation Xrotation
					JOINT LeftToe
					{
						OFFSET 0.23691 -0.65090 1.72750
						CHANNELS 3 Zrotation Yrotation Xrotation
						End Site
						{
							OFFSET 0.00000 -0.00000 0.92561
						}
					}
				}
			}
		}
	}
	JOINT RHipJoint
	{
		OFFSET 0 0 0
		CHANNELS 3 Zrotation Yrotation Xrotation
		JOINT RightHip
		{
			OFFSET -1.51435 -1.83665 0.71753
			CHANNELS 3 Zrotation Yrotation Xrotation
			JOINT RightKnee
			{
				OFFSET -2.54551 -6.99375 0.00000
				CHANNELS 3 Zrotation Yrotation Xrotation
				JOINT RightAnkle
				{
					OFFSET -2.66027 -7.30903 0.00000
					CHANNELS 3 Zrotation Yrotation Xrotation
					JOINT RightToe
					{
						OFFSET -0.22981 -0.63138 2.03959
						CHANNELS 3 Zrotation Yrotation Xrotation
						End Site
						{
							OFFSET -0.00000 -0.00000 1.07060
						}
					}
				}
			}
		}
	}
	JOINT lowerback
	{
		OFFSET 0 0 0
		CHANNELS 3 Zrotation Yrotation Xrotation
		JOINT Chest
		{
			OFFSET -0.02651 1.86275 -0.11152
			CHANNELS 3 Zrotation Yrotation Xrotation
			JOINT Chest2
			{
				OFFSET 0.01019 1.86224 0.04087
				CHANNELS 3 Zrotation Yrotation Xrotation
				JOINT lowerneck
				{
					OFFSET 0 0 0
					CHANNELS 3 Zrotation Yrotation Xrotation
					JOINT Neck
					{
						OFFSET -0.01926 1.80512 0.08867
						CHANNELS 3 Zrotation Yrotation Xrotation
						JOINT Head
						{
							OFFSET 0.05516 1.76451 -0.38475
							CHANNELS 3 Zrotation Yrotation Xrotation
							End Site
							{
								OFFSET 0.01592 1.82587 -0.14001
							}
						}
					}
				}
				JOINT LeftCollar
				{
					OFFSET 0 0 0
					CHANNELS 3 Zrotation Yrotation Xrotation
					JOINT LeftShoulder
					{
						OFFSET 3.47116 1.51376 0.14491
CHANNELS 3 Zrotation Xrotation Yrotation
						JOINT LeftElbow
						{
OFFSET 0 -4.780950 0.000000
CHANNELS 3 Zrotation Xrotation Yrotation
							JOINT LeftWrist
							{
OFFSET 0 -3.586150 -0.000000
CHANNELS 3 Zrotation Xrotation Yrotation
								JOINT lhand
								{
									OFFSET 0 0 0
CHANNELS 3 Zrotation Xrotation Yrotation
									JOINT LFingers
									{
OFFSET 0 -0.659810 0.000000
CHANNELS 3 Zrotation Xrotation Yrotation
										End Site
										{
OFFSET 0 -0.531960 0.000000
										}
									}
								}
								JOINT LThumb
								{
OFFSET 0 0.000000 0.000000
CHANNELS 3 Zrotation Xrotation Yrotation
									End Site
									{
OFFSET 0 -0.540080 0.540080
									}
								}
							}
						}
					}
				}
				JOINT RightCollar
				{
					OFFSET 0 0 0
					CHANNELS 3 Zrotation Yrotation Xrotation
					JOINT RightShoulder
					{
						OFFSET -3.31725 1.61216 0.35156
CHANNELS 3 Zrotation Xrotation Yrotation
						JOINT RightElbow
						{
OFFSET 0 -4.489130 0.000000
CHANNELS 3 Zrotation Xrotation Yrotation
							JOINT RightWrist
							{
OFFSET 0 -3.705100 0.000000
CHANNELS 3 Zrotation Xrotation Yrotation
								JOINT rhand
								{
									OFFSET 0 0 0
CHANNELS 3 Zrotation Xrotation Yrotation
									JOINT RFingers
									{
OFFSET 0 -0.449140 0.000000
CHANNELS 3 Zrotation Xrotation Yrotation
										End Site
										{
OFFSET 0 -0.362110 0.000000
										}
									}
								}
								JOINT RThumb
								{
OFFSET 0 0.000000 0.000000
CHANNELS 3 Zrotation Xrotation Yrotation
									End Site
									{
OFFSET 0 -0.367630 0.367630
									}
								}
							}
						}
					}
				}
			}
		}
	}
}
MOTION
Frames: 5
Frame Time: 0.008333333333333333
-0.726900 18.604200 6.260000 -1.504600 -1.428400 -0.153800 0.000000 0.000000 0.000000 -13.104100 -7.483200 1.313100 1.254600 7.100900 20.014600 1.583300 2.052200 -24.590200 8.492800 -16.470000 -54.318900 0.000000 0.000000 0.000000 15.283300 -0.605900 11.071900 0.000000 -0.000000 0.000000 -1.213600 -4.278200 -22.754800 -0.055700 1.522300 -4.187100 0.292300 0.170200 4.018800 0.135700 0.251300 -2.495600 -0.044100 0.117400 -4.832500 -0.258300 -0.859000 -9.377800 2.911400 -1.784000 21.022100 0.836100 -0.590000 8.071700 0.000000 -0.000000 0.000000 -2.835100 14.617600 -22.044400 22.093000 -33.081900 6.636500 4.429800 8.461700 26.565900 0.000000 0.000000 0.000000 -7.125000 0.000000 0.000000 -15.258700 4.130300 -14.659700 0.000000 -0.000000 0.000000 2.589600 18.773500 23.050400 -24.205200 -35.380500 -7.825100 -3.662900 21.763100 31.605600 0.000000 0.000000 0.000000 7.125000 0.000000 -0.000000 31.567200 58.729700 -11.305500
-0.727567 18.601111 6.262986 -1.508216 -1.459884 -0.319506 0.000000 0.000000 0.000000 -13.102349 -7.308441 1.432878 1.258127 7.110549 20.043297 1.578844 1.970334 -24.522673 8.482269 -16.462818 -54.281865 0.000000 0.000000 0.000000 15.281731 -0.621388 11.247253 0.000000 0.000000 0.000000 -1.211666 -4.296132 -22.748295 -0.059695 1.576789 -4.337347 0.302434 0.176870 4.275098 0.130547 0.261248 -2.328888 -0.056532 0.122119 -4.804402 -0.185852 -0.843722 -9.412650 2.983170 -1.779215 20.633179 0.846559 -0.579191 7.948530 0.000000 0.000000 0.000000 -3.221399 14.301224 -19.417220 22.301422 -33.315911 6.750711 2.774696 7.154511 26.764628 0.000000 0.000000 0.000000 -7.125000 0.000000 0.000000 -16.225451 4.073536 -15.689110 0.000000 0.000000 0.000000 2.645171 19.061628 22.476472 -24.959726 -36.160226 -8.267194 -1.887609 19.075470 31.162559 0.000000 0.000000 0.000000 7.125000 0.000000 0.000000 32.896064 57.969408 -11.228583
-0.725188 18.595642 6.272685 -1.597757 -1.603469 -0.610140 0.000000 0.000000 0.000000 -13.104345 -7.270784 1.804183 1.266423 7.133106 20.110284 1.598829 2.130594 -24.739855 8.479105 -16.460587 -54.270783 0.000000 0.000000 0.000000 15.371441 -0.571636 11.595694 0.000000 0.000000 0.000000 -1.213147 -4.329171 -22.778710 -0.063415 1.624990 -4.470410 0.490322 0.231885 4.590816 0.112097 0.346749 -2.059302 -0.189012 0.158768 -4.701572 -0.248789 -0.863009 -9.642073 3.282998 -1.843704 20.149525 0.947383 -0.589577 7.834506 0.000000 0.000000 0.000000 -3.619015 13.794981 -15.384961 22.895219 -33.973098 7.080103 -1.319010 7.141224 25.631848 0.000000 0.000000 0.000000 -7.125000 0.000000 0.000000 -18.633199 5.420488 -17.774167 0.000000 0.000000 0.000000 2.923190 19.327076 20.377379 -26.448028 -37.644011 -9.161418 3.465535 12.907567 31.155097 0.000000 0.000000 0.000000 7.125000 0.000000 0.000000 37.951973 56.827675 -12.191506
-0.726319 18.593646 6.276047 -1.667990 -1.622143 -0.800237 0.000000 0.000000 0.000000 -13.054968 -7.205365 1.977523 1.273361 7.151938 20.166215 1.602548 2.221062 -24.806099 8.522722 -16.490579 -54.424361 0.000000 0.000000 0.000000 15.453964 -0.615543 11.807911 0.000000 0.000000 0.000000 -1.210065 -4.363246 -22.772134 -0.059424 1.573108 -4.327229 0.609516 0.283927 4.987550 0.118447 0.426430 -1.865484 -0.257946 0.194928 -4.723844 -0.560307 -0.969320 -9.676331 3.789521 -2.011909 19.387071 1.146665 -0.654635 7.600658 0.000000 0.000000 0.000000 -3.517545 13.109995 -11.157087 23.932185 -35.092020 7.667779 -6.063229 7.047284 22.331702 0.000000 0.000000 0.000000 -7.125000 0.000000 0.000000 -21.588124 8.696332 -19.550917 0.000000 0.000000 0.000000 2.941917 19.482399 17.467759 -27.883796 -39.007278 -10.051117 5.937373 8.146376 30.881920 0.000000 0.000000 0.000000 7.125000 0.000000 0.000000 39.990489 56.097302 -12.274254
-0.725978 18.594170 6.283825 -1.719696 -1.687011 -0.936153 0.000000 0.000000 0.000000 -13.059556 -7.226137 2.142244 1.280678 7.171640 20.224889 1.605813 2.375928 -24.897375 8.540949 -16.503100 -54.488673 0.000000 0.000000 0.000000 15.505403 -0.598040 11.978053 0.000000 0.000000 0.000000 -1.202588 -4.454961 -22.761412 -0.067157 1.670851 -4.596885 0.694619 0.366431 5.280846 0.157597 0.546082 -1.729743 -0.277638 0.252505 -4.747536 -0.671496 -1.085977 -9.510374 3.911501 -2.147529 18.623908 1.189688 -0.728023 7.326589 0.000000 0.000000 0.000000 -2.604282 12.048024 -6.708875 24.474941 -35.661914 7.981970 -8.158781 6.365396 18.978493 0.000000 0.000000 0.000000 -7.125000 0.000000 0.000000 -23.146936 11.846915 -19.607236 0.000000 0.000000 0.000000 2.144623 19.608012 14.787341 -28.782560 -39.825922 -10.621481 8.807859 2.039947 33.297440 0.000000 0.000000 0.000000 7.125000 0.000000 0.000000 44.955104 57.323484 -15.712755
